HIERARCHY
ROOT Hips
{
  OFFSET -125.086 92.215 135.881
  CHANNELS 6 Xposition Yposition Zposition Zrotation Xrotation Yrotation
  JOINT LeftUpLeg
  {
    OFFSET 8.64259 1.95398 -2.38835
    CHANNELS 3 Zrotation Xrotation Yrotation
    JOINT LeftLeg
    {
      OFFSET 43.7702 0 0
      CHANNELS 3 Zrotation Xrotation Yrotation
      JOINT LeftFoot
      {
        OFFSET 40.6238 0 0
        CHANNELS 3 Zrotation Xrotation Yrotation
        JOINT LeftToeBase
        {
          OFFSET 12.7242 0 0
          CHANNELS 3 Zrotation Xrotation Yrotation
          End Site
          {
            OFFSET 0 0 0
          }
        }
      }
    }
  }
  JOINT RightUpLeg
  {
    OFFSET -8.2249 1.95398 -2.59336
    CHANNELS 3 Zrotation Xrotation Yrotation
    JOINT RightLeg
    {
      OFFSET 43.5653 0 0
      CHANNELS 3 Zrotation Xrotation Yrotation
      JOINT RightFoot
      {
        OFFSET 40.6238 0 0
        CHANNELS 3 Zrotation Xrotation Yrotation
        JOINT RightToeBase
        {
          OFFSET 12.7242 0 0
          CHANNELS 3 Zrotation Xrotation Yrotation
          End Site
          {
            OFFSET 0 0 0
          }
        }
      }
    }
  }
  JOINT Spine
  {
    OFFSET 0.165834 0.87714 6.61349
    CHANNELS 3 Zrotation Xrotation Yrotation
    JOINT Spine1
    {
      OFFSET 7.38963 1.71661e-005 0
      CHANNELS 3 Zrotation Xrotation Yrotation
      JOINT Spine2
      {
        OFFSET 11.9445 1.14441e-005 0
        CHANNELS 3 Zrotation Xrotation Yrotation
        JOINT Spine3
        {
          OFFSET 14.7254 4.19617e-005 0
          CHANNELS 3 Zrotation Xrotation Yrotation
          JOINT Spine4
          {
            OFFSET 10.9679 0 0
            CHANNELS 3 Zrotation Xrotation Yrotation
            JOINT RightShoulder
            {
              OFFSET 2.46616 -1.6653 3.69651
              CHANNELS 3 Zrotation Xrotation Yrotation
              JOINT RightArm
              {
                OFFSET 13.0012 0 0
                CHANNELS 3 Zrotation Xrotation Yrotation
                JOINT RightForeArm
                {
                  OFFSET 28.7848 1.52588e-005 0
                  CHANNELS 3 Zrotation Xrotation Yrotation
                  JOINT RightHand
                  {
                    OFFSET 26.5688 1.52588e-005 0
                    CHANNELS 3 Zrotation Xrotation Yrotation
                    End Site
                    {
                      OFFSET 0 0 0
                    }
                  }
                }
              }
            }
            JOINT LeftShoulder
            {
              OFFSET 2.38034 -1.29275 -3.7523
              CHANNELS 3 Zrotation Xrotation Yrotation
              JOINT LeftArm
              {
                OFFSET 16.3182 6.10352e-005 0
                CHANNELS 3 Zrotation Xrotation Yrotation
                JOINT LeftForeArm
                {
                  OFFSET 27.0901 0 0
                  CHANNELS 3 Zrotation Xrotation Yrotation
                  JOINT LeftHand
                  {
                    OFFSET 24.5451 1.52588e-005 0
                    CHANNELS 3 Zrotation Xrotation Yrotation
                    End Site
                    {
                      OFFSET 0 0 0
                    }
                  }
                }
              }
            }
            JOINT Neck
            {
              OFFSET 5.0226 -0.0266342 0
              CHANNELS 3 Zrotation Xrotation Yrotation
              JOINT Head
              {
                OFFSET 6.69363 2.86102e-005 0
                CHANNELS 3 Zrotation Xrotation Yrotation
                End Site
                {
                  OFFSET 0 0 0
                }
              }
            }
          }
        }
      }
    }
  }
}
MOTION
Frames:	6
Frame Time:	0.0416667
-10.6206 71.8269 45.209 103.74 -14.2452 80.7118 179.1 32.9398 105.698 -55.7733 21.8477 8.07422 51.7674 -0.769845 -4.14767 65.188 0.0311922 15.3351 175.041 47.769 90.2678 -102.107 -19.0664 -3.39634 60.8408 -4.93784 -2.62735 45.2075 -2.08133 9.79587 -0.139497 10.653 -89.303 5.56511 0.0121551 1.36607 -6.10657 0.0722939 1.3642 -28.6362 -0.398924 1.30659 -8.62355 -0.398922 1.30658 108.513 -50.6044 -72.3477 17.3949 -19.104 -18.6312 -18.6917 -4.98891 -73.9208 -6.74985 0.0751482 -6.96228 -81.1153 -39.3054 91.1754 -19.7998 -12.2551 -34.1543 10.6788 25.8258 -20.6615 2.74836 -0.402623 -11.1406 -7.06178 -16.4144 5.14664 -5.71964 -16.0154 -40.5381 
-5.83862 72.543 39.4548 100.25 -20.7545 80.5259 -177.655 34.3805 104.857 -63.864 22.7828 6.20312 62.6 5.26779 -0.545783 64.623 0.445575 17.5166 165.542 52.195 93.266 -100.645 -18.7716 -1.93088 63.325 -3.77732 5.89445 44.0249 -2.1555 5.68727 -0.339611 11.5973 -88.9912 3.67729 -0.274366 1.9741 -7.99513 -0.187254 1.98425 -30.5201 -0.854885 1.80049 -10.5075 -0.854921 1.80046 109.704 -52.7212 -70.8116 20.3423 -19.4445 -23.5528 -24.2395 0.183008 -85.5395 -7.23628 0.101267 -7.3177 -83.1344 -38.7288 87.6084 -24.4343 -13.3511 -46.9195 8.5184 27.9876 -3.76215 4.65127 -0.471061 -10.5645 2.54003 -15.0077 3.37892 -2.84637 -15.6078 -36.7456 
-2.41369 74.128 36.3781 91.588 -19.4104 77.5074 -178.613 38.7934 101.727 -62.3677 22.269 5.24303 67.2925 9.0183 3.15244 64.3001 0.611108 18.4637 142.046 56.6865 109.092 -91.4049 -18.4107 2.86674 63.8925 -5.09646 0.77967 53.9383 -2.94242 7.86418 -0.618476 11.7416 -89.0396 3.3934 -0.853254 1.87367 -8.27869 -0.769947 1.90938 -30.8082 -1.37686 1.53072 -10.7956 -1.37685 1.53072 111.641 -56.1361 -68.4805 20.9033 -17.4254 -20.9026 -19.1734 -2.45821 -79.9392 -13.8951 -0.125426 -4.27748 -84.9311 -38.2823 84.4129 -29.9242 -4.61547 -63.037 9.64943 25.6239 -3.27975 3.70307 -0.388988 -9.97591 8.43965 -14.9063 5.61379 -1.04293 -16.7055 -37.6883 
1.70067 76.6887 35.7992 87.5794 -18.0047 73.2034 -178.833 37.068 96.235 -57.8141 20.0826 4.35412 67.3942 9.43814 4.04799 65.5715 0.528362 17.6169 140.265 57.8996 108.658 -83.6361 -13.4604 5.43684 65.653 -5.87062 1.07073 54.6971 -2.68904 10.0116 -0.983064 12.1137 -89.135 2.6553 -1.62458 1.66818 -9.01579 -1.5496 1.73803 -31.5548 -2.05081 1.10277 -11.5421 -2.05082 1.10277 111.862 -57.5954 -68.3996 19.9805 -15.0891 -17.8981 -8.17912 -7.53593 -63.2188 -22.1911 -0.859351 -0.805659 -86.5245 -36.506 81.2604 -31.9617 5.51966 -72.9392 18.0124 29.7484 -25.9867 1.36887 -0.313484 -11.3129 14.1252 -14.4618 13.9379 -1.41504 -18.6616 -41.86 
7.76719 79.0637 38.0011 82.8969 -22.1835 68.7646 -175.067 30.188 94.2527 -50.0054 20.5996 2.55672 68.8732 9.84299 2.99618 67.8668 0.898414 18.5084 149.183 56.8603 102.486 -77.8154 -9.8742 5.46779 61.0715 -2.82491 3.75982 44.8022 -2.00382 9.48361 -1.06752 11.7849 -89.2302 3.31269 -1.82648 1.49516 -8.3579 -1.75894 1.5741 -30.9006 -2.19138 0.876967 -10.8879 -2.19139 0.876991 109.433 -56.5175 -71.7085 22.3832 -16.4128 -9.43133 -2.00342 -8.39267 -50.8187 -21.6799 -0.70974 -1.47476 -85.5555 -36.7536 83.0455 -28.6493 12.1086 -70.5725 21.7953 24.5006 -50.3825 4.2993 -0.583922 -12.8161 14.9781 -13.3957 19.3542 -2.91582 -18.6041 -41.896 
15.2781 80.3752 43.5889 76.9463 -32.118 65.6303 -178.456 27.6502 97.1748 -56.6497 16.9457 5.23428 58.953 2.42189 -9.96794 77.4001 2.40863 20.719 156.718 46.5975 99.8434 -72.124 -13.878 6.74562 68.4484 -7.18404 0.791412 36.7007 -1.6319 14.7456 -0.66448 11.0957 -89.4048 4.68631 -1.08417 1.18093 -6.98476 -1.03114 1.22749 -29.5213 -1.38894 0.80049 -9.50862 -1.38894 0.800487 107.687 -55.8244 -74.1503 26.3769 -19.9609 -4.93882 14.5173 6.23285 -40.4815 -18.9889 -0.258527 -3.6611 -83.3242 -41.6014 87.6317 -34.1047 9.58309 -51.8109 19.0186 27.0343 -42.9234 4.86054 -0.620751 -12.7441 13.7625 -11.7357 14.8113 -2.84164 -15.528 -33.2948 
